<?xml version="1.0" standalone="no"?>
<!DOCTYPE svg PUBLIC "-//W3C//DTD SVG 20010904//EN"
 "http://www.w3.org/TR/2001/REC-SVG-20010904/DTD/svg10.dtd">
<svg version="1.0" xmlns="http://www.w3.org/2000/svg"
 width="256.000000pt" height="256.000000pt" viewBox="0 0 256.000000 256.000000"
 preserveAspectRatio="xMidYMid meet">
<metadata>
Created by potrace 1.14, written by Peter Selinger 2001-2017
</metadata>
<g transform="translate(0.000000,256.000000) scale(0.100000,-0.100000)"
fill="#000000" stroke="none">
<path d="M203 2474 c-60 -22 -126 -84 -154 -146 l-23 -53 -1 -750 c-1 -599 1
-759 12 -797 19 -65 68 -125 133 -162 l55 -31 433 -1 c238 -1 435 -4 438 -6 5
-6 7 -60 5 -130 -1 -35 -2 -36 -53 -48 -162 -36 -238 -78 -238 -130 0 -136
540 -197 832 -94 53 18 104 57 111 84 13 50 -79 108 -216 136 -40 9 -73 17
-75 18 -8 9 -4 147 5 158 9 10 93 13 415 11 451 -2 480 2 555 63 24 20 53 58
70 92 l28 57 0 765 0 765 -28 57 c-16 32 -46 73 -68 91 -82 70 -27 67 -1168
66 -875 -1 -1032 -3 -1068 -15z m2128 -192 l29 -32 0 -741 0 -741 -29 -29
c-27 -27 -35 -29 -103 -29 -181 0 -1850 -1 -1906 0 -57 0 -67 3 -93 29 l-29
29 0 737 c0 534 3 742 11 758 13 24 33 39 62 47 10 3 471 5 1024 5 l1005 -1
29 -32z"/>
<path d="M1424 2064 c-19 -8 -36 -24 -42 -41 -5 -15 -76 -212 -157 -438 -206
-571 -217 -605 -210 -632 15 -62 91 -84 138 -41 18 16 49 91 107 253 45 127
104 292 131 367 133 373 151 425 155 450 8 44 -28 85 -81 93 -5 1 -24 -4 -41
-11z"/>
<path d="M745 1851 c-47 -30 -323 -313 -334 -343 -6 -17 -7 -37 -2 -50 14 -36
341 -358 365 -359 53 -3 93 26 102 75 7 39 -11 62 -137 189 -79 80 -107 114
-104 128 2 11 54 70 114 130 61 61 116 119 122 130 23 44 -22 119 -70 119 -14
0 -39 -9 -56 -19z"/>
<path d="M1744 1859 c-39 -11 -50 -24 -59 -72 -7 -37 -7 -38 119 -166 69 -71
126 -134 126 -141 0 -7 -54 -68 -120 -135 -102 -103 -121 -127 -124 -157 -4
-41 26 -86 59 -89 60 -5 70 2 228 159 87 86 164 168 171 182 8 14 12 36 9 50
-4 27 -309 342 -353 364 -17 9 -35 10 -56 5z"/>
</g>
</svg>
